<svg width="673" height="673" viewBox="0 0 673 673" fill="none" xmlns="http://www.w3.org/2000/svg">
<path fill-rule="evenodd" clip-rule="evenodd" d="M336.5 673C522.344 673 673 522.344 673 336.5C673 291.202 664.05 247.995 647.821 208.55L427.99 589.301L336.725 431.221L245.465 589.287L25.3725 208.082C9.02149 247.653 0 291.023 0 336.5C0 522.344 150.656 673 336.5 673ZM46.966 164.926C105.607 66.1819 213.325 0 336.5 0C459.681 0 567.403 66.1879 626.042 164.94H540.979L404.688 401.007L426.034 437.984L562.324 201.917H608.956L427.99 515.347L404.681 474.968H404.688L383.336 437.984L358.064 394.224L358.104 394.15L490.448 164.926H183.075L315.412 394.136C315.412 394.136 315.406 394.143 315.406 394.15L315.419 394.17C303.849 414.184 280.237 455.081 268.768 474.948H268.774L245.465 515.333L64.5003 201.903H111.132L247.422 437.971L268.768 400.994L132.477 164.926H46.966ZM247.113 201.903L336.751 357.173L336.765 357.152L426.404 201.903V201.89H247.126V201.903H247.113Z" fill="#D9D9D9"/>
</svg>
